<svg width="314" height="448" viewBox="0 0 314 448" fill="none" xmlns="http://www.w3.org/2000/svg">
<g opacity="0.896949">
<g opacity="0.896949">
<path opacity="0.896949" fill-rule="evenodd" clip-rule="evenodd" d="M-77 449L167 387.093L149.897 292.2L23.0677 287L-77 449Z" stroke="#FEBC11" stroke-width="1.75" stroke-linejoin="round"/>
<path opacity="0.896949" fill-rule="evenodd" clip-rule="evenodd" d="M165.97 387L260 118L149 292.134L165.97 387Z" stroke="#FEBC11" stroke-width="1.75" stroke-linejoin="round"/>
<path opacity="0.896949" fill-rule="evenodd" clip-rule="evenodd" d="M260 118L11 246.372L22.2992 286.806L148.601 292L260 118Z" stroke="#FEBC11" stroke-width="1.75" stroke-linejoin="round"/>
<path opacity="0.896949" fill-rule="evenodd" clip-rule="evenodd" d="M10.7747 247L-77 451L22 287.781L10.7747 247Z" stroke="#FEBC11" stroke-width="1.75" stroke-linejoin="round"/>
<path opacity="0.896949" fill-rule="evenodd" clip-rule="evenodd" d="M11 247L260 117.991L71.2391 -51L11 247Z" stroke="#FEBC11" stroke-width="1.75" stroke-linejoin="round"/>
<path opacity="0.896949" fill-rule="evenodd" clip-rule="evenodd" d="M-76.8395 449L12 246.521L-312 141L-177.846 351.806L-76.8395 449Z" stroke="#FEBC11" stroke-width="1.75" stroke-linejoin="round"/>
<path opacity="0.896949" fill-rule="evenodd" clip-rule="evenodd" d="M-75.6215 448.866L-80 347L4.88107 491.336L68 582L-75.6215 448.866Z" stroke="#FEBC11" stroke-width="1.75" stroke-linejoin="round"/>
<path opacity="0.896949" fill-rule="evenodd" clip-rule="evenodd" d="M76.3566 331L167 388.888L67.3224 584L4 493.395L76.3566 331Z" stroke="#FEBC11" stroke-width="1.75" stroke-linejoin="round"/>
<path opacity="0.896949" fill-rule="evenodd" clip-rule="evenodd" d="M12 247L-114.841 147.459L-312 141L12 247Z" stroke="#FEBC11" stroke-width="1.75" stroke-linejoin="round"/>
<path opacity="0.896949" fill-rule="evenodd" clip-rule="evenodd" d="M77 329.359L150.881 78L313 164.548L262.426 360L77 329.359Z" stroke="#FEBC11" stroke-width="1.75" stroke-linejoin="round"/>
<path opacity="0.896949" fill-rule="evenodd" clip-rule="evenodd" d="M149 77.4796L-115 147L-13.7662 -117L149 77.4796Z" stroke="#FEBC11" stroke-width="1.75" stroke-linejoin="round"/>
<path opacity="0.896949" fill-rule="evenodd" clip-rule="evenodd" d="M76 328.764L-81.5547 347L-126 243.829L56.9526 225L76 328.764Z" stroke="#FEBC11" stroke-width="1.75" stroke-linejoin="round"/>
</g>
</g>
</svg>
